HIERARCHY
ROOT Hips
{
	OFFSET 0.0000 0.0000 0.0000
	CHANNELS 6 Xposition Yposition Zposition Zrotation Xrotation Yrotation
	JOINT Ab
	{
		OFFSET -0.0000 8.0846 -0.0000
		CHANNELS 3 Zrotation Xrotation Yrotation
		JOINT Chest
		{
			OFFSET -0.0000 25.0068 -0.0000
			CHANNELS 3 Zrotation Xrotation Yrotation
			JOINT Neck
			{
				OFFSET -0.0000 25.0068 0.0000
				CHANNELS 3 Zrotation Xrotation Yrotation
				JOINT Head
				{
					OFFSET -0.0000 10.7556 0.0000
					CHANNELS 3 Zrotation Xrotation Yrotation
					End Site
					{
						OFFSET -0.0000 16.6222 0.0000
					}
				}
			}
			JOINT LeftCollar
			{
				OFFSET -0.0000 25.0068 0.0000
				CHANNELS 3 Zrotation Xrotation Yrotation
				JOINT LeftShoulder
				{
					OFFSET 19.5556 -0.0000 0.0000
					CHANNELS 3 Zrotation Xrotation Yrotation
					JOINT LeftElbow
					{
						OFFSET 27.1828 0.0000 0.0000
						CHANNELS 3 Zrotation Xrotation Yrotation
						JOINT LeftWrist
						{
							OFFSET 23.3157 0.0000 0.0000
							CHANNELS 3 Zrotation Xrotation Yrotation
							End Site
							{
								OFFSET 0.0000 -14.6667 0.0000
							}
						}
					}
				}
			}
			JOINT RightCollar
			{
				OFFSET -0.0000 25.0068 0.0000
				CHANNELS 3 Zrotation Xrotation Yrotation
				JOINT RightShoulder
				{
					OFFSET -19.5556 0.0000 0.0000
					CHANNELS 3 Zrotation Xrotation Yrotation
					JOINT RightElbow
					{
						OFFSET -27.1828 0.0000 0.0000
						CHANNELS 3 Zrotation Xrotation Yrotation
						JOINT RightWrist
						{
							OFFSET -23.3157 0.0000 0.0000
							CHANNELS 3 Zrotation Xrotation Yrotation
							End Site
							{
								OFFSET -0.0000 -14.6667 0.0000
							}
						}
					}
				}
			}
		}
	}
	JOINT LeftHip
	{
		OFFSET 11.7333 0.0000 0.0000
		CHANNELS 3 Zrotation Xrotation Yrotation
		JOINT LeftKnee
		{
			OFFSET -0.0000 -40.8688 0.0000
			CHANNELS 3 Zrotation Xrotation Yrotation
			JOINT LeftAnkle
			{
				OFFSET -0.0000 -44.4337 0.0000
				CHANNELS 3 Zrotation Xrotation Yrotation
				End Site
				{
					OFFSET -0.0000 -4.8889 16.6222
				}
			}
		}
	}
	JOINT RightHip
	{
		OFFSET -11.7333 0.0000 0.0000
		CHANNELS 3 Zrotation Xrotation Yrotation
		JOINT RightKnee
		{
			OFFSET -0.0000 -40.8688 0.0000
			CHANNELS 3 Zrotation Xrotation Yrotation
			JOINT RightAnkle
			{
				OFFSET -0.0000 -44.4337 0.0000
				CHANNELS 3 Zrotation Xrotation Yrotation
				End Site
				{
					OFFSET -0.0000 -4.8889 16.6222
				}
			}
		}
	}
}
MOTION
Frames: 11
Frame Time: 0.010000
-0.2108 86.9138 118.6447 2.9020 358.3960 178.3153 3.4846 6.2950 1.1930 348.6337 5.4286 1.9247 0.4272 339.0560 357.5611 13.0369 13.2320 356.0541 341.6061 357.9994 12.0339 301.9434 6.1390 11.1163 19.4659 353.8139 324.8747 83.5527 354.4160 340.4086 20.9966 359.5327 357.5717 42.0418 49.4338 29.1169 334.4826 351.0859 38.5111 277.2153 346.6347 18.1872 4.3262 351.0303 0.8864 356.3579 23.8886 355.8013 351.1914 343.8909 19.4865 5.0946 346.7636 2.7382 357.0560 39.5299 11.7219 353.1697 344.2433 336.7142 
-0.2988 86.9197 117.7710 2.8716 358.3519 178.1375 3.2467 5.9688 0.7599 348.2818 5.1790 1.4585 0.4176 339.1078 357.8921 13.6075 13.7031 356.2799 341.5355 358.0555 11.4086 302.0924 5.2452 11.4037 18.3654 354.2730 324.0131 83.2756 354.9432 339.0437 21.3223 359.4956 357.3229 43.5314 49.7445 27.5749 334.4964 351.0799 38.4274 277.0658 346.4567 19.6103 4.1585 352.1398 1.1636 356.5105 22.8936 355.7488 351.0485 343.7417 19.4336 4.9190 345.7749 2.8341 357.6491 41.5388 10.5295 353.0551 343.9103 337.0008 
-0.3618 86.9535 117.1093 2.8806 358.3227 178.1132 3.0358 5.8722 0.4899 348.1683 4.8298 1.1448 0.6672 338.8980 358.2549 13.6292 14.3333 356.5156 341.4127 358.0887 11.4150 302.0776 5.6021 11.1843 18.2518 354.1333 323.6938 81.5263 355.0899 338.0150 21.4536 359.4637 357.1100 44.4734 49.9336 26.4395 334.8734 351.2406 38.5851 276.7980 346.2882 20.9819 4.0440 352.9539 1.1106 356.5703 22.1543 355.7397 350.8686 343.6195 19.4490 4.8125 344.9948 2.7435 357.9865 42.9004 9.7358 353.1696 343.2906 336.7769 
-0.3785 87.0319 116.7851 2.9433 358.3855 178.2402 3.0522 5.9350 0.3546 348.2899 4.7567 0.9995 0.8236 338.6433 358.4378 13.5016 14.5619 356.6477 341.3735 358.0698 11.5983 301.9617 6.6972 10.8887 18.0934 354.0643 323.2462 81.7744 355.1452 338.7148 21.3046 359.4700 357.0336 44.1092 49.9544 26.3748 335.1994 351.3363 38.5501 277.1712 346.1922 22.0491 4.0051 353.3723 1.0474 356.6583 21.8572 355.6297 350.8110 343.5507 19.4411 4.8238 344.5816 2.6618 358.0660 43.6633 9.5805 353.0207 343.0555 336.3302 
-0.4347 87.0924 116.0842 3.0113 358.3166 178.3358 2.9863 5.7276 359.9766 348.2270 4.5227 0.5846 0.7362 338.7874 358.5719 13.8393 14.8155 356.7308 341.1567 358.0814 11.3050 301.9660 8.1805 10.6679 18.0010 353.9941 322.8411 82.2130 355.4086 339.6830 21.4150 359.4018 356.5670 45.0903 50.3607 24.9759 335.3635 351.3532 38.7701 277.1852 345.7074 22.3449 3.8859 354.2021 1.0301 356.8821 21.0013 355.7038 350.4779 343.4942 19.2100 4.7733 343.7319 2.3385 358.1275 44.5482 9.4262 353.1679 343.0527 336.0799 
-0.4908 87.1686 115.2099 3.1314 357.9500 178.5586 2.8769 5.2578 359.3656 348.1346 4.0775 359.9153 0.7136 339.1021 358.8389 14.1038 15.1031 356.9419 340.7795 358.0759 11.0348 302.0460 10.1173 10.1665 18.2903 353.7395 322.6403 83.1004 355.3567 340.9896 21.6625 359.2990 355.8503 46.9298 50.4423 22.6027 336.4171 351.7557 39.5840 276.9749 345.3078 21.7763 3.7840 354.9541 0.8940 357.1422 19.9238 355.9044 350.1463 343.4199 18.9678 4.7558 342.3568 1.6738 358.2936 45.3821 8.3235 353.0718 343.3075 336.1188 
-0.5187 87.2670 114.6102 3.2866 357.9956 178.7032 2.9656 5.1900 359.0962 348.0898 3.9814 359.6294 0.9748 338.8864 359.1848 14.0586 15.4470 357.1947 340.5944 358.0288 11.7014 302.0943 12.8676 9.2172 19.3739 353.1372 322.5971 83.1278 355.1004 342.8356 21.5964 359.1986 355.2494 46.5522 51.6610 22.6115 336.5782 351.6183 39.5986 276.9376 345.2005 20.8510 3.7880 355.7746 0.8599 357.3425 19.1875 355.9490 349.9969 343.3304 18.8487 4.8229 341.7742 1.4683 358.3711 45.8735 7.9532 353.1184 343.3552 336.0428 
-0.5514 87.3623 114.0267 3.3999 358.0914 178.8693 3.0237 5.1227 358.8358 348.1328 3.9832 359.3788 1.0733 338.9225 359.3138 13.9630 15.5386 357.2890 340.4020 357.9425 12.1650 302.1582 16.4231 8.3516 21.1068 352.3513 322.9839 83.1195 355.1853 345.2877 21.4918 359.1255 354.9947 47.8725 51.1632 20.7250 337.4986 351.9376 40.4452 276.0585 345.0337 21.0729 3.7448 356.5764 0.8275 357.5732 18.4190 355.9636 349.7018 343.4638 18.7350 4.8390 341.2326 1.3307 358.4519 46.3276 7.6179 352.9805 343.3463 336.1153 
-0.5841 87.4574 113.2173 3.5744 358.2094 179.0890 3.0898 4.9610 358.4392 348.1230 3.9529 358.9762 1.1832 339.2304 359.4851 13.9100 15.5584 357.4469 340.2336 357.9202 12.1117 302.2264 18.4328 7.7179 22.2687 351.9666 323.0549 83.4517 355.3296 346.8107 21.4386 359.0695 354.7108 50.5666 49.9537 17.3757 338.9652 352.4398 41.7124 275.0653 344.5430 22.2515 3.7505 357.6596 0.7726 357.8553 17.5727 355.8719 349.3339 343.4423 18.5519 4.9074 340.5860 1.1647 358.5805 46.6702 7.0828 352.7958 343.5882 336.3659 
-0.6015 87.5476 112.6211 3.7152 358.0455 179.3014 3.0968 4.7980 358.0779 348.2810 3.8230 358.5942 1.3379 339.1572 359.6626 13.7860 15.7196 357.5838 340.1032 357.8760 12.4192 302.4115 20.7982 6.8790 23.8041 351.4295 323.3213 83.3471 355.0856 348.5907 21.1751 359.0109 354.1641 51.9504 49.4095 15.4817 340.0239 352.6547 42.4629 274.6499 344.4472 23.5331 3.7799 358.1782 0.7013 358.0799 16.9426 355.7360 348.8859 343.3135 18.5616 4.9979 339.5203 1.2515 358.8547 47.1804 6.5264 353.3636 343.2538 336.6293 
-0.6176 87.6324 112.0306 3.8499 357.8602 179.5211 3.1017 4.6147 357.7075 348.4243 3.6990 358.2020 1.5263 339.0891 359.8586 13.6626 15.8981 357.7341 340.0055 357.8052 12.7993 302.6786 23.2394 6.0234 25.4072 350.8858 323.6797 83.4869 355.0412 350.3404 20.9020 358.9304 353.6254 53.2791 48.8385 13.6803 341.1189 352.9239 43.2024 274.2516 344.3444 24.8936 3.8074 358.6550 0.6062 358.2886 16.3139 355.6871 348.3561 343.1563 18.5246 5.0921 338.4220 1.3510 359.2001 47.6729 6.0679 354.1278 342.8526 336.8499 
